<?xml version="1.0" standalone="no"?>
<svg xmlns:xlink="http://www.w3.org/1999/xlink" id="wave" style="transform:rotate(0deg); transition: 0.3s" viewBox="0 0 1440 230" version="1.1" xmlns="http://www.w3.org/2000/svg"><defs><linearGradient id="sw-gradient-0" x1="0" x2="0" y1="1" y2="0"><stop stop-color="rgba(72, 0, 255, 1)" offset="0%"/><stop stop-color="rgba(0, 0, 0, 1)" offset="100%"/></linearGradient></defs><path style="transform:translate(0, 0px); opacity:1" fill="url(#sw-gradient-0)" d="M0,161L18.5,149.5C36.9,138,74,115,111,95.8C147.7,77,185,61,222,49.8C258.5,38,295,31,332,38.3C369.2,46,406,69,443,88.2C480,107,517,123,554,126.5C590.8,130,628,123,665,130.3C701.5,138,738,161,775,153.3C812.3,146,849,107,886,95.8C923.1,84,960,100,997,115C1033.8,130,1071,146,1108,134.2C1144.6,123,1182,84,1218,57.5C1255.4,31,1292,15,1329,19.2C1366.2,23,1403,46,1440,72.8C1476.9,100,1514,130,1551,118.8C1587.7,107,1625,54,1662,61.3C1698.5,69,1735,138,1772,164.8C1809.2,192,1846,176,1883,176.3C1920,176,1957,192,1994,184C2030.8,176,2068,146,2105,126.5C2141.5,107,2178,100,2215,88.2C2252.3,77,2289,61,2326,80.5C2363.1,100,2400,153,2437,157.2C2473.8,161,2511,115,2548,111.2C2584.6,107,2622,146,2640,164.8L2658.5,184L2658.5,230L2640,230C2621.5,230,2585,230,2548,230C2510.8,230,2474,230,2437,230C2400,230,2363,230,2326,230C2289.2,230,2252,230,2215,230C2178.5,230,2142,230,2105,230C2067.7,230,2031,230,1994,230C1956.9,230,1920,230,1883,230C1846.2,230,1809,230,1772,230C1735.4,230,1698,230,1662,230C1624.6,230,1588,230,1551,230C1513.8,230,1477,230,1440,230C1403.1,230,1366,230,1329,230C1292.3,230,1255,230,1218,230C1181.5,230,1145,230,1108,230C1070.8,230,1034,230,997,230C960,230,923,230,886,230C849.2,230,812,230,775,230C738.5,230,702,230,665,230C627.7,230,591,230,554,230C516.9,230,480,230,443,230C406.2,230,369,230,332,230C295.4,230,258,230,222,230C184.6,230,148,230,111,230C73.8,230,37,230,18,230L0,230Z"/></svg>